<svg width="1308" height="612" viewBox="0 0 1308 612" fill="none" xmlns="http://www.w3.org/2000/svg">
<path d="M232.939 303.061C233.525 303.646 234.475 303.646 235.061 303.061L244.607 293.515C245.192 292.929 245.192 291.979 244.607 291.393C244.021 290.808 243.071 290.808 242.485 291.393L234 299.879L225.515 291.393C224.929 290.808 223.979 290.808 223.393 291.393C222.808 291.979 222.808 292.929 223.393 293.515L232.939 303.061ZM235.5 302V293.25H232.5V302H235.5ZM235.5 275.75V258.25H232.5V275.75H235.5ZM235.5 240.75L235.5 223.25H232.5L232.5 240.75H235.5ZM235.5 205.75V188.25H232.5V205.75H235.5ZM235.5 170.75V162H232.5V170.75H235.5Z" fill="black"/>
<path d="M232.939 160.061C233.525 160.646 234.475 160.646 235.061 160.061L244.607 150.515C245.192 149.929 245.192 148.979 244.607 148.393C244.021 147.808 243.071 147.808 242.485 148.393L234 156.879L225.515 148.393C224.929 147.808 223.979 147.808 223.393 148.393C222.808 148.979 222.808 149.929 223.393 150.515L232.939 160.061ZM235.5 159V150.187H232.5V159H235.5ZM235.5 132.562V114.937H232.5V132.562H235.5ZM235.5 97.3125L235.5 79.6875H232.5L232.5 97.3125H235.5ZM235.5 62.0625V44.4375H232.5V62.0625H235.5ZM235.5 26.8125V18H232.5V26.8125H235.5Z" fill="black"/>
<path d="M67.0607 19.9393C66.4749 19.3536 65.5251 19.3536 64.9393 19.9393L55.3934 29.4853C54.8076 30.0711 54.8076 31.0208 55.3934 31.6066C55.9792 32.1924 56.9289 32.1924 57.5147 31.6066L66 23.1213L74.4853 31.6066C75.0711 32.1924 76.0208 32.1924 76.6066 31.6066C77.1924 31.0208 77.1924 30.0711 76.6066 29.4853L67.0607 19.9393ZM67.5 306V298.083H64.5V306H67.5ZM67.5 282.25V266.417H64.5V282.25H67.5ZM67.5 250.583V234.75H64.5V250.583H67.5ZM67.5 218.917V203.083H64.5V218.917H67.5ZM67.5 187.25V171.417H64.5V187.25H67.5ZM67.5 155.583V139.75H64.5V155.583H67.5ZM67.5 123.917V108.083H64.5V123.917H67.5ZM67.5 92.25V76.4167H64.5V92.25H67.5ZM67.5 60.5834V44.75H64.5V60.5834H67.5ZM67.5 28.9167V21H64.5V28.9167H67.5Z" fill="black"/>
<path d="M739.061 307.939C738.475 307.354 737.525 307.354 736.939 307.939L727.393 317.485C726.808 318.071 726.808 319.021 727.393 319.607C727.979 320.192 728.929 320.192 729.515 319.607L738 311.121L746.485 319.607C747.071 320.192 748.021 320.192 748.607 319.607C749.192 319.021 749.192 318.071 748.607 317.485L739.061 307.939ZM739.5 596V588.028H736.5V596H739.5ZM739.5 572.083V556.139H736.5V572.083H739.5ZM739.5 540.194V524.25H736.5V540.194H739.5ZM739.5 508.306V492.361H736.5V508.306H739.5ZM739.5 476.417V460.472H736.5V476.417H739.5ZM739.5 444.528V428.583H736.5V444.528H739.5ZM739.5 412.639V396.694H736.5V412.639H739.5ZM739.5 380.75V364.806H736.5V380.75H739.5ZM739.5 348.861V332.917H736.5V348.861H739.5ZM739.5 316.972V309H736.5V316.972H739.5Z" fill="black"/>
<path d="M907.061 164.939C906.475 164.354 905.525 164.354 904.939 164.939L895.393 174.485C894.808 175.071 894.808 176.021 895.393 176.607C895.979 177.192 896.929 177.192 897.515 176.607L906 168.121L914.485 176.607C915.071 177.192 916.021 177.192 916.607 176.607C917.192 176.021 917.192 175.071 916.607 174.485L907.061 164.939ZM907.5 596V587.731H904.5V596H907.5ZM907.5 571.192V554.654H904.5V571.192H907.5ZM907.5 538.115V521.577H904.5V538.115H907.5ZM907.5 505.038V488.5H904.5V505.038H907.5ZM907.5 471.962V455.423H904.5V471.962H907.5ZM907.5 438.885V422.346H904.5V438.885H907.5ZM907.5 405.808V389.269H904.5V405.808H907.5ZM907.5 372.731V356.192H904.5V372.731H907.5ZM907.5 339.654V323.115H904.5V339.654H907.5ZM907.5 306.577V290.038H904.5V306.577H907.5ZM907.5 273.5V256.962H904.5V273.5H907.5ZM907.5 240.423V223.885H904.5V240.423H907.5ZM907.5 207.346V190.808H904.5V207.346H907.5ZM907.5 174.269V166H904.5V174.269H907.5Z" fill="black"/>
<path d="M1075.06 18.9394C1074.47 18.3536 1073.53 18.3536 1072.94 18.9394L1063.39 28.4853C1062.81 29.0711 1062.81 30.0208 1063.39 30.6066C1063.98 31.1924 1064.93 31.1924 1065.51 30.6066L1074 22.1213L1082.49 30.6066C1083.07 31.1924 1084.02 31.1924 1084.61 30.6066C1085.19 30.0208 1085.19 29.0711 1084.61 28.4853L1075.06 18.9394ZM1075.5 596L1075.5 588L1072.5 588L1072.5 596L1075.5 596ZM1075.5 572L1075.5 556L1072.5 556L1072.5 572L1075.5 572ZM1075.5 540L1075.5 524L1072.5 524L1072.5 540L1075.5 540ZM1075.5 508L1075.5 492L1072.5 492L1072.5 508L1075.5 508ZM1075.5 476L1075.5 460L1072.5 460L1072.5 476L1075.5 476ZM1075.5 444L1075.5 428L1072.5 428L1072.5 444L1075.5 444ZM1075.5 412L1075.5 396L1072.5 396L1072.5 412L1075.5 412ZM1075.5 380L1075.5 364L1072.5 364L1072.5 380L1075.5 380ZM1075.5 348L1075.5 332L1072.5 332L1072.5 348L1075.5 348ZM1075.5 316L1075.5 300L1072.5 300L1072.5 316L1075.5 316ZM1075.5 284L1075.5 268L1072.5 268L1072.5 284L1075.5 284ZM1075.5 252L1075.5 236L1072.5 236L1072.5 252L1075.5 252ZM1075.5 220L1075.5 204L1072.5 204L1072.5 220L1075.5 220ZM1075.5 188L1075.5 172L1072.5 172L1072.5 188L1075.5 188ZM1075.5 156L1075.5 140L1072.5 140L1072.5 156L1075.5 156ZM1075.5 124L1075.5 108L1072.5 108L1072.5 124L1075.5 124ZM1075.5 92L1075.5 76L1072.5 76L1072.5 92L1075.5 92ZM1075.5 60L1075.5 44L1072.5 44L1072.5 60L1075.5 60ZM1075.5 28L1075.5 20L1072.5 20L1072.5 28L1075.5 28Z" fill="black"/>
<line x1="33" y1="594.5" x2="1074.01" y2="594.5" stroke="black" stroke-width="3"/>
<line x1="33" y1="305.688" x2="738" y2="305.688" stroke="black" stroke-width="3"/>
<line x1="201" y1="162.367" x2="906" y2="162.367" stroke="black" stroke-width="3"/>
<line x1="33" y1="17.875" x2="1074.01" y2="17.875" stroke="black" stroke-width="3"/>
</svg>
