<svg id="Layer_1" data-name="Layer 1" xmlns="http://www.w3.org/2000/svg" viewBox="0 0 1336.58 765"><defs><style>.cls-1,.cls-2,.cls-3,.cls-4,.cls-5,.cls-6{fill:none;stroke:#000;stroke-miterlimit:10;stroke-width:6px;}.cls-1{stroke-linecap:round;}.cls-3{stroke-dasharray:19.97 19.97;}.cls-4{stroke-dasharray:20.26 20.26;}.cls-5{stroke-dasharray:19.56 19.56;}.cls-6{stroke-dasharray:20.91 20.91;}</style></defs><line class="cls-1" x1="3" y1="3" x2="1321" y2="3"/><line class="cls-1" x1="3" y1="762" x2="1317" y2="762"/><line class="cls-1" x1="200" y1="114" x2="1097" y2="114"/><line class="cls-1" x1="3" y1="253" x2="886" y2="253"/><line class="cls-2" x1="1317" y1="3" x2="1317" y2="13"/><line class="cls-3" x1="1317" y1="32.97" x2="1317" y2="742.01"/><line class="cls-2" x1="1317" y1="752" x2="1317" y2="762"/><line class="cls-2" x1="1097" y1="762" x2="1097" y2="752"/><line class="cls-4" x1="1097" y1="731.74" x2="1097" y2="134.13"/><line class="cls-2" x1="1097" y1="124" x2="1097" y2="114"/><line class="cls-2" x1="886" y1="762" x2="886" y2="752"/><line class="cls-5" x1="886" y1="732.44" x2="886" y2="272.78"/><line class="cls-2" x1="886" y1="263" x2="886" y2="253"/><line class="cls-2" x1="234" y1="253" x2="234" y2="243"/><line class="cls-6" x1="234" y1="222.09" x2="234" y2="23.45"/><line class="cls-2" x1="234" y1="13" x2="234" y2="3"/><line class="cls-2" x1="19" y1="253" x2="19" y2="243"/><line class="cls-6" x1="19" y1="222.09" x2="19" y2="23.45"/><line class="cls-2" x1="19" y1="13" x2="19" y2="3"/><polyline class="cls-1" points="3.06 27.36 19.03 10.15 35.38 26.8"/><polyline class="cls-1" points="217.66 232.23 233.64 249.44 249.99 232.79"/><polyline class="cls-1" points="217.66 92.15 233.64 109.37 249.99 92.72"/><polyline class="cls-1" points="870.26 276.44 886.24 259.23 902.58 275.87"/><polyline class="cls-1" points="1081.26 136.44 1097.24 119.23 1113.58 135.87"/><polyline class="cls-1" points="1301.26 27.44 1317.24 10.23 1333.58 26.87"/></svg>